# Blender 5.2.2 LTS
# www.blender.org
mtllib Soup.mtl
o 立方体
v -1.000000 -1.000000 1.000000
v -1.000000 1.000000 1.000000
v -1.000000 -1.000000 -1.000000
v -1.000000 1.000000 -1.000000
v 1.000000 -1.000000 1.000000
v 1.000000 1.000000 1.000000
v 1.000000 -1.000000 -1.000000
v 1.000000 1.000000 -1.000000
v -1.000000 -0.717048 0.717048
v -1.000000 0.717048 0.717048
v -1.000000 0.717048 -0.717048
v -1.000000 -0.717048 -0.717048
v -0.717048 -0.717048 -1.000000
v -0.717048 0.717048 -1.000000
v 0.717048 0.717048 -1.000000
v 0.717048 -0.717048 -1.000000
v 1.000000 -0.717048 -0.717048
v 1.000000 0.717048 -0.717048
v 1.000000 0.717048 0.717048
v 1.000000 -0.717048 0.717048
v 0.717048 -0.717048 1.000000
v 0.717048 0.717048 1.000000
v -0.717048 0.717048 1.000000
v -0.717048 -0.717048 1.000000
v -0.717048 -1.000000 -0.717048
v 0.717048 -1.000000 -0.717048
v 0.717048 -1.000000 0.717048
v -0.717048 -1.000000 0.717048
v 0.717048 1.000000 -0.717048
v -0.717048 1.000000 -0.717048
v -0.717048 1.000000 0.717048
v 0.717048 1.000000 0.717048
v -0.904903 -0.717048 0.717048
v -0.904903 0.717048 0.717048
v -0.904903 -0.717048 -0.717048
v -0.904903 0.717048 -0.717048
v -0.717048 0.717048 -0.904903
v -0.717048 -0.717048 -0.904903
v 0.717048 -0.717048 -0.904903
v 0.717048 0.717048 -0.904903
v 0.904903 0.717048 -0.717048
v 0.904903 -0.717048 -0.717048
v 0.904903 -0.717048 0.717048
v 0.904903 0.717048 0.717048
v 0.717048 0.717048 0.904903
v 0.717048 -0.717048 0.904903
v -0.717048 -0.717048 0.904903
v -0.717048 0.717048 0.904903
v 0.717048 -0.904903 -0.717048
v -0.717048 -0.904903 -0.717048
v -0.717048 -0.904903 0.717048
v 0.717048 -0.904903 0.717048
v -0.717048 0.904903 -0.717048
v 0.717048 0.904903 -0.717048
v 0.717048 0.904903 0.717048
v -0.717048 0.904903 0.717048
vn -0.0000 1.0000 -0.0000
vn -0.0000 -1.0000 -0.0000
vn -0.0000 -0.0000 1.0000
vn -1.0000 -0.0000 -0.0000
vn -0.0000 -0.0000 -1.0000
vn 1.0000 -0.0000 -0.0000
vt 0.873639 0.004148
vt 0.887026 0.206022
vt 0.873639 0.206022
vt 0.908708 0.206022
vt 0.895322 0.004148
vt 0.908709 0.004148
vt 0.930391 0.206022
vt 0.917005 0.004148
vt 0.930391 0.004148
vt 0.582583 0.995852
vt 0.569196 0.793978
vt 0.582583 0.793978
vt 0.604266 0.995852
vt 0.590879 0.793978
vt 0.604266 0.793978
vt 0.612562 0.793978
vt 0.625948 0.995852
vt 0.612562 0.995852
vt 0.004148 0.285682
vt 0.245852 0.245852
vt 0.285682 0.285682
vt 0.004148 0.004148
vt 0.043978 0.245852
vt 0.285682 0.004148
vt 0.043978 0.043978
vt 0.245852 0.043978
vt 0.004148 0.575513
vt 0.245852 0.535682
vt 0.285682 0.575513
vt 0.004148 0.293978
vt 0.043978 0.535682
vt 0.285682 0.293978
vt 0.043978 0.333809
vt 0.245852 0.333809
vt 0.293978 0.285682
vt 0.535682 0.245852
vt 0.575513 0.285682
vt 0.293978 0.004148
vt 0.333809 0.245852
vt 0.575513 0.004148
vt 0.333809 0.043978
vt 0.535682 0.043978
vt 0.293978 0.575513
vt 0.535682 0.535682
vt 0.575513 0.575513
vt 0.293978 0.293978
vt 0.333809 0.535682
vt 0.575513 0.293978
vt 0.333809 0.333809
vt 0.535682 0.333809
vt 0.285682 0.865343
vt 0.245852 0.623639
vt 0.285682 0.583809
vt 0.004148 0.865343
vt 0.245852 0.825513
vt 0.004148 0.583809
vt 0.043978 0.825513
vt 0.043978 0.623639
vt 0.865343 0.285682
vt 0.825513 0.043978
vt 0.865343 0.004148
vt 0.583809 0.285682
vt 0.825513 0.245852
vt 0.583809 0.004148
vt 0.623639 0.245852
vt 0.623639 0.043978
vt 0.583809 0.495852
vt 0.785682 0.293978
vt 0.785682 0.495852
vt 0.293978 0.785682
vt 0.495852 0.583809
vt 0.495852 0.785682
vt 0.504148 0.785682
vt 0.706021 0.583809
vt 0.706021 0.785682
vt 0.714318 0.785682
vt 0.916191 0.583809
vt 0.916191 0.785682
vt 0.995852 0.495852
vt 0.793978 0.293978
vt 0.995852 0.293978
vt 0.495852 0.995852
vt 0.293978 0.793978
vt 0.495852 0.793978
vt 0.924487 0.583809
vt 0.937874 0.785682
vt 0.924487 0.785682
vt 0.647631 0.995852
vt 0.634245 0.793978
vt 0.647631 0.793978
vt 0.655927 0.793978
vt 0.669314 0.995852
vt 0.655927 0.995852
vt 0.952074 0.206022
vt 0.938687 0.004148
vt 0.952074 0.004148
vt 0.690997 0.995852
vt 0.677610 0.793978
vt 0.690997 0.793978
vt 0.946170 0.583809
vt 0.959557 0.785682
vt 0.946170 0.785682
vt 0.960370 0.004148
vt 0.973757 0.206022
vt 0.960370 0.206022
vt 0.712679 0.995852
vt 0.699293 0.793978
vt 0.712679 0.793978
vt 0.981239 0.785682
vt 0.967853 0.583809
vt 0.981239 0.583809
vt 0.734362 0.995852
vt 0.720975 0.793978
vt 0.734362 0.793978
vt 0.982053 0.004148
vt 0.995439 0.206022
vt 0.982053 0.206022
vt 0.517535 0.995852
vt 0.504148 0.793978
vt 0.517535 0.793978
vt 0.525831 0.793978
vt 0.539217 0.995852
vt 0.525831 0.995852
vt 0.742658 0.793978
vt 0.756045 0.995852
vt 0.742658 0.995852
vt 0.764341 0.793978
vt 0.777727 0.995852
vt 0.764341 0.995852
vt 0.786024 0.793978
vt 0.799410 0.995852
vt 0.786024 0.995852
vt 0.807706 0.793978
vt 0.821093 0.995852
vt 0.807706 0.995852
vt 0.560900 0.995852
vt 0.547514 0.793978
vt 0.560900 0.793978
vt 0.887026 0.004148
vt 0.895322 0.206022
vt 0.917005 0.206022
vt 0.569196 0.995852
vt 0.590879 0.995852
vt 0.625948 0.793978
vt 0.583809 0.293978
vt 0.293978 0.583809
vt 0.504148 0.583809
vt 0.714318 0.583809
vt 0.793978 0.495852
vt 0.293978 0.995852
vt 0.937874 0.583809
vt 0.634245 0.995852
vt 0.669314 0.793978
vt 0.938687 0.206022
vt 0.677610 0.995852
vt 0.959557 0.583809
vt 0.973757 0.004148
vt 0.699293 0.995852
vt 0.967853 0.785682
vt 0.720975 0.995852
vt 0.995439 0.004148
vt 0.504148 0.995852
vt 0.539217 0.793978
vt 0.756045 0.793978
vt 0.777727 0.793978
vt 0.799410 0.793978
vt 0.821093 0.793978
vt 0.547514 0.995852
s 0
usemtl マテリアル
f 21/1/1 47/2/1 24/3/1
f 15/4/2 37/5/2 14/6/2
f 26/7/3 50/8/3 25/9/3
f 17/10/1 43/11/1 20/12/1
f 11/13/2 34/14/2 10/15/2
f 22/16/4 46/17/4 21/18/4
f 2/19/4 9/20/4 1/21/4
f 4/22/4 10/23/4 2/19/4
f 3/24/4 11/25/4 4/22/4
f 1/21/4 12/26/4 3/24/4
f 4/27/5 13/28/5 3/29/5
f 8/30/5 14/31/5 4/27/5
f 7/32/5 15/33/5 8/30/5
f 3/29/5 16/34/5 7/32/5
f 8/35/6 17/36/6 7/37/6
f 6/38/6 18/39/6 8/35/6
f 5/40/6 19/41/6 6/38/6
f 7/37/6 20/42/6 5/40/6
f 6/43/3 21/44/3 5/45/3
f 2/46/3 22/47/3 6/43/3
f 1/48/3 23/49/3 2/46/3
f 5/45/3 24/50/3 1/48/3
f 7/51/2 25/52/2 3/53/2
f 5/54/2 26/55/2 7/51/2
f 1/56/2 27/57/2 5/54/2
f 3/53/2 28/58/2 1/56/2
f 4/59/1 29/60/1 8/61/1
f 2/62/1 30/63/1 4/59/1
f 6/64/1 31/65/1 2/62/1
f 8/61/1 32/66/1 6/64/1
f 34/67/4 35/68/4 33/69/4
f 37/70/5 39/71/5 38/72/5
f 41/73/6 43/74/6 42/75/6
f 45/76/3 47/77/3 46/78/3
f 49/79/2 51/80/2 50/81/2
f 53/82/1 55/83/1 54/84/1
f 30/85/3 54/86/3 29/87/3
f 12/88/3 36/89/3 11/90/3
f 19/91/2 41/92/2 18/93/2
f 25/94/6 51/95/6 28/96/6
f 16/97/4 40/98/4 15/99/4
f 23/100/2 45/101/2 22/102/2
f 29/103/4 55/104/4 32/105/4
f 20/106/5 44/107/5 19/108/5
f 27/109/4 49/110/4 26/111/4
f 24/112/6 48/113/6 23/114/6
f 31/115/6 53/116/6 30/117/6
f 28/118/5 52/119/5 27/120/5
f 32/121/5 56/122/5 31/123/5
f 10/124/5 33/125/5 9/126/5
f 14/127/6 38/128/6 13/129/6
f 9/130/1 35/131/1 12/132/1
f 18/133/3 42/134/3 17/135/3
f 13/136/1 39/137/1 16/138/1
f 21/1/1 46/139/1 47/2/1
f 15/4/2 40/140/2 37/5/2
f 26/7/3 49/141/3 50/8/3
f 17/10/1 42/142/1 43/11/1
f 11/13/2 36/143/2 34/14/2
f 22/16/4 45/144/4 46/17/4
f 2/19/4 10/23/4 9/20/4
f 4/22/4 11/25/4 10/23/4
f 3/24/4 12/26/4 11/25/4
f 1/21/4 9/20/4 12/26/4
f 4/27/5 14/31/5 13/28/5
f 8/30/5 15/33/5 14/31/5
f 7/32/5 16/34/5 15/33/5
f 3/29/5 13/28/5 16/34/5
f 8/35/6 18/39/6 17/36/6
f 6/38/6 19/41/6 18/39/6
f 5/40/6 20/42/6 19/41/6
f 7/37/6 17/36/6 20/42/6
f 6/43/3 22/47/3 21/44/3
f 2/46/3 23/49/3 22/47/3
f 1/48/3 24/50/3 23/49/3
f 5/45/3 21/44/3 24/50/3
f 7/51/2 26/55/2 25/52/2
f 5/54/2 27/57/2 26/55/2
f 1/56/2 28/58/2 27/57/2
f 3/53/2 25/52/2 28/58/2
f 4/59/1 30/63/1 29/60/1
f 2/62/1 31/65/1 30/63/1
f 6/64/1 32/66/1 31/65/1
f 8/61/1 29/60/1 32/66/1
f 34/67/4 36/145/4 35/68/4
f 37/70/5 40/146/5 39/71/5
f 41/73/6 44/147/6 43/74/6
f 45/76/3 48/148/3 47/77/3
f 49/79/2 52/149/2 51/80/2
f 53/82/1 56/150/1 55/83/1
f 30/85/3 53/151/3 54/86/3
f 12/88/3 35/152/3 36/89/3
f 19/91/2 44/153/2 41/92/2
f 25/94/6 50/154/6 51/95/6
f 16/97/4 39/155/4 40/98/4
f 23/100/2 48/156/2 45/101/2
f 29/103/4 54/157/4 55/104/4
f 20/106/5 43/158/5 44/107/5
f 27/109/4 52/159/4 49/110/4
f 24/112/6 47/160/6 48/113/6
f 31/115/6 56/161/6 53/116/6
f 28/118/5 51/162/5 52/119/5
f 32/121/5 55/163/5 56/122/5
f 10/124/5 34/164/5 33/125/5
f 14/127/6 37/165/6 38/128/6
f 9/130/1 33/166/1 35/131/1
f 18/133/3 41/167/3 42/134/3
f 13/136/1 38/168/1 39/137/1
