# Blender 4.4.3
# www.blender.org
mtllib Field.mtl
o Field
v -10.000000 0.000000 10.000000
v 10.000000 0.000000 10.000000
v -10.000000 0.491607 -10.000000
v 10.000000 -0.092750 -10.000000
v -10.000000 0.171651 -8.248212
v -10.000000 0.000000 -6.430030
v -10.000000 0.000000 -4.611848
v -10.000000 0.000000 -2.793667
v -10.000000 0.000000 -0.975485
v -10.000000 0.000000 0.842697
v -10.000000 0.000000 2.660879
v -10.000000 0.000000 4.479061
v -10.000000 0.000000 6.297243
v -10.000000 0.000000 8.115424
v 10.000000 0.000000 8.115424
v 10.000000 0.000000 6.297242
v 10.000000 0.000000 4.479060
v 10.000000 0.000000 2.660878
v 10.000000 0.477736 0.842696
v 10.000000 0.690261 -0.975486
v 10.000000 0.000000 -2.793667
v 10.000000 0.000000 -4.611849
v 10.000000 0.000000 -6.430031
v 10.000000 0.000000 -8.248212
v -8.181818 0.785548 10.000000
v -6.363636 0.630017 10.000000
v -4.545454 0.000000 10.000000
v -2.727272 0.000000 10.000000
v -0.909091 0.355981 10.000000
v 0.909091 0.210413 10.000000
v 2.727273 0.000000 10.000000
v 4.545455 0.000000 10.000000
v 6.363637 0.000000 10.000000
v 8.181818 0.000000 10.000000
v 8.181818 0.212280 -10.000000
v 6.363636 0.000000 -10.000000
v 4.545454 0.000000 -10.000000
v 2.727272 0.000000 -10.000000
v 0.909091 0.000000 -10.000000
v -0.909091 0.000000 -10.000000
v -2.727273 0.000000 -10.000000
v -4.545455 0.000000 -10.000000
v -6.363637 0.000000 -10.000000
v -8.181818 0.491607 -10.000000
v 8.181818 0.391396 8.115424
v 6.363636 0.698076 8.115424
v 4.545454 0.000000 8.115424
v 2.727272 0.000000 8.115424
v 0.909091 0.355981 8.115424
v -0.909091 0.355981 8.115424
v -2.727273 0.000000 8.115424
v -4.545455 0.000000 8.115424
v -6.363637 0.630017 8.115424
v -8.181818 0.630017 8.115424
v 8.181818 0.953336 6.297242
v 6.363636 0.698076 6.297242
v 4.545454 0.000000 6.297242
v 2.727272 0.000000 6.297242
v 0.909091 0.000000 6.297242
v -0.909091 0.000000 6.297242
v -2.727273 0.000000 6.297242
v -4.545455 0.000000 6.297242
v -6.363637 0.000000 6.297242
v -8.181818 0.000000 6.297242
v 8.181818 0.000000 4.479060
v 6.363636 0.000000 4.479060
v 4.545454 0.000000 4.479060
v 2.727272 0.000000 4.479060
v 0.909091 0.000000 4.479060
v -0.909091 0.000000 4.479060
v -2.727273 0.000000 4.479060
v -4.545455 0.000000 4.479060
v -6.363637 0.000000 4.479060
v -8.181818 0.000000 4.479060
v 8.181818 0.000000 2.660878
v 6.363636 0.000000 2.660878
v 4.545454 0.000000 2.660878
v 2.727272 0.423977 2.660878
v 0.909091 0.000000 2.660878
v -0.909091 0.137787 2.660878
v -2.727273 0.137787 2.660878
v -4.545455 0.000000 2.660878
v -6.363637 0.200819 2.660878
v -8.181818 0.200819 2.660879
v 8.181818 0.536037 0.842696
v 6.363636 0.000000 0.842696
v 4.545454 0.000000 0.842696
v 2.727272 0.000000 0.842696
v 0.909091 0.000000 0.842697
v -0.909091 0.137787 0.842697
v -2.727273 0.137787 0.842697
v -4.545455 0.000000 0.842697
v -6.363637 0.200819 0.842697
v -8.181818 0.200819 0.842697
v 8.181818 0.690261 -0.975485
v 6.363636 0.000000 -0.975485
v 4.545454 0.000000 -0.975485
v 2.727272 0.000000 -0.975485
v 0.909091 0.000000 -0.975485
v -0.909091 0.000000 -0.975485
v -2.727273 0.000000 -0.975485
v -4.545455 0.000000 -0.975485
v -6.363637 0.000000 -0.975485
v -8.181818 0.000000 -0.975485
v 8.181818 0.000000 -2.793667
v 6.363636 0.000000 -2.793667
v 4.545454 0.000000 -2.793667
v 2.727272 0.180502 -2.793667
v 0.909091 0.180502 -2.793667
v -0.909091 0.000000 -2.793667
v -2.727273 0.000000 -2.793667
v -4.545455 0.000000 -2.793667
v -6.363637 0.000000 -2.793667
v -8.181818 0.000000 -2.793667
v 8.181818 0.000000 -4.611849
v 6.363636 0.000000 -4.611849
v 4.545454 0.000000 -4.611849
v 2.727272 0.180502 -4.611849
v 0.909091 0.180502 -4.611849
v -0.909091 0.000000 -4.611849
v -2.727273 0.000000 -4.611849
v -4.545455 0.000000 -4.611849
v -6.363637 0.548199 -4.611849
v -8.181818 0.640999 -4.611849
v 8.181818 0.926729 -6.430031
v 6.363636 0.466829 -6.430031
v 4.545454 0.000000 -6.430031
v 2.727272 0.000000 -6.430031
v 0.909091 0.000000 -6.430031
v -0.909091 0.000000 -6.430031
v -2.727273 0.000000 -6.430031
v -4.545455 0.000000 -6.430031
v -6.363637 0.897895 -6.430031
v -8.181818 0.897895 -6.430031
v 8.181818 0.926729 -8.248212
v 6.363636 0.926729 -8.248212
v 4.545454 0.000000 -8.248212
v 2.727272 0.000000 -8.248212
v 0.909091 0.000000 -8.248212
v -0.909091 0.392992 -8.248212
v -2.727273 0.000000 -8.248212
v -4.545455 0.000000 -8.248212
v -6.363637 0.000000 -8.248212
v -8.181818 0.491607 -8.248212
vn 0.4268 0.8374 -0.3415
vn 0.2062 0.9581 0.1990
vn 0.4479 0.8542 0.2640
vn 0.4212 0.8033 -0.4212
vn -0.0000 1.0000 -0.0000
vn 0.0307 0.9587 0.2827
vn -0.0000 0.9964 0.0845
vn -0.0000 0.9349 -0.3549
vn 0.4135 0.8112 0.4135
vn 0.4541 0.8909 -0.0000
vn -0.1726 0.9806 0.0926
vn -0.0000 0.9759 -0.2181
vn 0.4049 0.8198 -0.4049
vn 0.2067 0.9563 0.2067
vn -0.2487 0.9686 -0.0000
vn -0.2382 0.9416 0.2382
vn -0.3325 0.9431 -0.0000
vn -0.0000 0.9902 0.1399
vn 0.4364 0.8836 0.1699
vn -0.0000 0.9951 -0.0988
vn 0.0983 0.9903 -0.0983
vn -0.0000 0.9686 0.2487
vn 0.0481 0.9420 0.3321
vn 0.2773 0.9199 0.2773
vn -0.0988 0.9951 -0.0000
vn 0.0988 0.9951 -0.0000
vn -0.0000 0.9951 0.0988
vn 0.0983 0.9903 0.0983
vn -0.0000 0.9940 -0.1098
vn 0.1091 0.9880 -0.1091
vn -0.0000 0.9971 -0.0756
vn 0.0754 0.9943 -0.0754
vn -0.2828 0.9592 -0.0000
vn -0.1098 0.9940 -0.0000
vn 0.1098 0.9940 -0.0000
vn -0.0756 0.9971 -0.0000
vn 0.0756 0.9971 -0.0000
vn 0.2215 0.9497 -0.2215
vn -0.0000 0.9940 0.1098
vn 0.1091 0.9880 0.1091
vn -0.0000 0.9971 0.0756
vn 0.0754 0.9943 0.0754
vn 0.2215 0.9497 0.2215
vn -0.0000 0.9336 -0.3584
vn -0.0000 0.9449 -0.3274
vn 0.3112 0.8980 -0.3112
vn -0.0000 0.9814 -0.1921
vn 0.1887 0.9637 -0.1887
vn -0.3584 0.9336 -0.0000
vn -0.1390 0.9903 -0.0000
vn -0.3274 0.9449 -0.0000
vn 0.0849 0.9930 -0.0820
vn 0.3274 0.9449 -0.0000
vn -0.1921 0.9814 -0.0000
vn 0.1916 0.9786 0.0756
vn 0.1562 0.9262 0.3431
vn -0.1706 0.9693 0.1770
vn 0.2610 0.9653 -0.0000
vn 0.2064 0.9547 -0.2142
vn -0.1027 0.8793 -0.4651
vn 0.1652 0.9849 -0.0521
vn 0.2104 0.9776 -0.0000
vn -0.0000 0.9672 0.2541
vn 0.0318 0.9927 0.1160
vn -0.4342 0.8792 -0.1965
vn 0.2356 0.8714 -0.4303
vn -0.2067 0.9563 0.2067
vn -0.4430 0.8691 0.2198
vn -0.4393 0.8895 0.1257
vn 0.0501 0.9808 0.1886
vn 0.2887 0.9574 -0.0000
vn -0.0983 0.9903 -0.0983
vn -0.2413 0.9400 0.2413
vn -0.2198 0.8691 0.4430
vn -0.3155 0.8949 0.3155
vn -0.0000 0.9574 0.2887
vn -0.0983 0.9903 0.0983
vn -0.3345 0.8810 -0.3345
vn -0.1091 0.9880 -0.1091
vn -0.0754 0.9943 -0.0754
vn -0.3538 0.9320 0.0791
vn -0.2215 0.9497 -0.2215
vn -0.2721 0.9230 0.2721
vn -0.1091 0.9880 0.1091
vn -0.0754 0.9943 0.0754
vn -0.2215 0.9497 0.2215
vn -0.3374 0.8788 -0.3374
vn -0.1234 0.8789 -0.4608
vn -0.3112 0.8980 -0.3112
vn -0.1887 0.9637 -0.1887
vn 0.1591 0.9432 0.2915
vn -0.3955 0.9154 -0.0755
vn 0.0796 0.9939 0.0768
vn 0.1150 0.9934 -0.0000
vn -0.3387 0.8823 0.3268
vn -0.0000 0.9791 0.2033
vn -0.2064 0.9547 -0.2142
vn -0.4108 0.8059 -0.4263
vn -0.0000 0.9260 -0.3776
vt 1.000000 0.912411
vt 0.909091 1.000000
vt 0.909091 0.912411
vt 0.909091 0.000000
vt 1.000000 0.094229
vt 0.909091 0.094229
vt 1.000000 0.185138
vt 0.909091 0.185138
vt 0.909091 0.276047
vt 1.000000 0.276047
vt 0.909091 0.366956
vt 1.000000 0.457865
vt 0.909091 0.457865
vt 1.000000 0.548774
vt 0.909091 0.548774
vt 0.909091 0.639683
vt 1.000000 0.639683
vt 0.909091 0.730592
vt 1.000000 0.821501
vt 0.909091 0.821501
vt 0.000000 0.821501
vt 0.090909 0.912411
vt 0.000000 0.912411
vt 0.181818 0.821501
vt 0.090909 0.821501
vt 0.272727 0.821502
vt 0.181818 0.912411
vt 0.363636 0.821502
vt 0.272727 0.912411
vt 0.454545 0.821501
vt 0.363636 0.912411
vt 0.545455 0.912411
vt 0.454545 0.912411
vt 0.636364 0.821501
vt 0.545455 0.821501
vt 0.727273 0.821501
vt 0.636364 0.912411
vt 0.818182 0.821501
vt 0.727273 0.912411
vt 0.818182 0.912411
vt 0.090909 0.730592
vt 0.000000 0.730592
vt 0.181818 0.730592
vt 0.363636 0.730592
vt 0.272727 0.730592
vt 0.454545 0.730592
vt 0.636364 0.730592
vt 0.545455 0.730592
vt 0.727273 0.730592
vt 0.818182 0.730592
vt 0.090909 0.639683
vt 0.000000 0.639683
vt 0.181818 0.639683
vt 0.363636 0.639683
vt 0.272727 0.639683
vt 0.454545 0.639683
vt 0.545455 0.639683
vt 0.636364 0.639683
vt 0.727273 0.639683
vt 0.818182 0.639683
vt 0.090909 0.548774
vt 0.000000 0.548774
vt 0.181818 0.548774
vt 0.272727 0.548774
vt 0.363636 0.548774
vt 0.454545 0.548774
vt 0.545455 0.548774
vt 0.636364 0.548774
vt 0.818182 0.548774
vt 0.727273 0.548774
vt 0.000000 0.457865
vt 0.181818 0.457865
vt 0.090909 0.457865
vt 0.272727 0.457865
vt 0.454545 0.457865
vt 0.363636 0.457865
vt 0.545455 0.457865
vt 0.636364 0.457865
vt 0.727273 0.457865
vt 0.818182 0.457865
vt 0.090909 0.366956
vt 0.000000 0.366956
vt 0.181818 0.366956
vt 0.272727 0.366956
vt 0.363636 0.366956
vt 0.454545 0.366956
vt 0.545455 0.366956
vt 0.727273 0.366956
vt 0.636364 0.366956
vt 0.818182 0.366956
vt 0.090909 0.276047
vt 0.000000 0.276047
vt 0.181818 0.276047
vt 0.363636 0.276047
vt 0.272727 0.276047
vt 0.454545 0.276047
vt 0.636364 0.276047
vt 0.545455 0.276047
vt 0.818182 0.276047
vt 0.727273 0.276047
vt 0.090909 0.185138
vt 0.000000 0.185138
vt 0.181818 0.185138
vt 0.272727 0.185138
vt 0.363636 0.185138
vt 0.454545 0.185138
vt 0.545455 0.185138
vt 0.636364 0.185138
vt 0.727273 0.185138
vt 0.818182 0.185138
vt 0.000000 0.094229
vt 0.181818 0.094229
vt 0.090909 0.094229
vt 0.272727 0.094229
vt 0.363636 0.094229
vt 0.545455 0.094229
vt 0.454545 0.094229
vt 0.636364 0.094229
vt 0.727273 0.094229
vt 0.818182 0.094229
vt 0.000000 0.000000
vt 0.181818 0.000000
vt 0.090909 0.000000
vt 0.272727 0.000000
vt 0.363636 0.000000
vt 0.454545 0.000000
vt 0.545455 0.000000
vt 0.636364 0.000000
vt 0.818182 0.000000
vt 0.727273 0.000000
vt 0.000000 1.000000
vt 0.090909 1.000000
vt 0.181818 1.000000
vt 0.272727 1.000000
vt 0.454545 1.000000
vt 0.363636 1.000000
vt 0.545455 1.000000
vt 0.636364 1.000000
vt 0.818182 1.000000
vt 0.727273 1.000000
vt 1.000000 1.000000
vt 1.000000 0.000000
vt 1.000000 0.366956
vt 1.000000 0.730592
s 0
usemtl Field
f 24/1/1 35/2/1 135/3/1
f 34/4/2 15/5/2 45/6/2
f 45/6/3 16/7/3 55/8/3
f 16/7/4 65/9/4 55/8/4
f 17/10/5 75/11/5 65/9/5
f 75/11/6 19/12/6 85/13/6
f 85/13/7 20/14/7 95/15/7
f 20/14/8 105/16/8 95/15/8
f 21/17/5 115/18/5 105/16/5
f 115/18/9 23/19/9 125/20/9
f 23/19/10 135/3/10 125/20/10
f 6/21/11 144/22/11 5/23/11
f 133/24/12 144/22/12 134/25/12
f 132/26/13 143/27/13 133/24/13
f 131/28/5 142/29/5 132/26/5
f 130/30/5 141/31/5 131/28/5
f 130/30/14 139/32/14 140/33/14
f 128/34/5 139/32/5 129/35/5
f 127/36/5 138/37/5 128/34/5
f 126/38/15 137/39/15 127/36/15
f 125/20/16 136/40/16 126/38/16
f 124/41/17 6/21/17 7/42/17
f 124/41/18 133/24/18 134/25/18
f 123/43/19 132/26/19 133/24/19
f 121/44/5 132/26/5 122/45/5
f 120/46/5 131/28/5 121/44/5
f 120/46/5 129/35/5 130/30/5
f 118/47/20 129/35/20 119/48/20
f 117/49/21 128/34/21 118/47/21
f 116/50/5 127/36/5 117/49/5
f 115/18/22 126/38/22 116/50/22
f 114/51/5 7/42/5 8/52/5
f 114/51/23 123/43/23 124/41/23
f 113/53/24 122/45/24 123/43/24
f 111/54/5 122/45/5 112/55/5
f 110/56/5 121/44/5 111/54/5
f 109/57/25 120/46/25 110/56/25
f 108/58/5 119/48/5 109/57/5
f 107/59/26 118/47/26 108/58/26
f 106/60/5 117/49/5 107/59/5
f 105/16/5 116/50/5 106/60/5
f 104/61/5 8/52/5 9/62/5
f 103/63/5 114/51/5 104/61/5
f 102/64/5 113/53/5 103/63/5
f 101/65/5 112/55/5 102/64/5
f 100/66/5 111/54/5 101/65/5
f 99/67/5 110/56/5 100/66/5
f 98/68/27 109/57/27 99/67/27
f 98/68/28 107/59/28 108/58/28
f 96/69/5 107/59/5 97/70/5
f 96/69/5 105/16/5 106/60/5
f 10/71/5 104/61/5 9/62/5
f 93/72/29 104/61/29 94/73/29
f 92/74/30 103/63/30 93/72/30
f 92/74/5 101/65/5 102/64/5
f 90/75/31 101/65/31 91/76/31
f 89/77/32 100/66/32 90/75/32
f 88/78/5 99/67/5 89/77/5
f 87/79/5 98/68/5 88/78/5
f 86/80/5 97/70/5 87/79/5
f 85/13/33 96/69/33 86/80/33
f 84/81/34 10/71/34 11/82/34
f 83/83/5 94/73/5 84/81/5
f 82/84/35 93/72/35 83/83/35
f 81/85/36 92/74/36 82/84/36
f 80/86/5 91/76/5 81/85/5
f 79/87/37 90/75/37 80/86/37
f 79/87/5 88/78/5 89/77/5
f 77/88/38 88/78/38 78/89/38
f 76/90/5 87/79/5 77/88/5
f 75/11/5 86/80/5 76/90/5
f 74/91/5 11/82/5 12/92/5
f 73/93/39 84/81/39 74/91/39
f 73/93/40 82/84/40 83/83/40
f 71/94/5 82/84/5 72/95/5
f 70/96/41 81/85/41 71/94/41
f 70/96/42 79/87/42 80/86/42
f 68/97/5 79/87/5 69/98/5
f 68/97/43 77/88/43 78/89/43
f 66/99/5 77/88/5 67/100/5
f 65/9/5 76/90/5 66/99/5
f 64/101/5 12/92/5 13/102/5
f 63/103/5 74/91/5 64/101/5
f 62/104/5 73/93/5 63/103/5
f 61/105/5 72/95/5 62/104/5
f 60/106/5 71/94/5 61/105/5
f 59/107/5 70/96/5 60/106/5
f 58/108/5 69/98/5 59/107/5
f 57/109/5 68/97/5 58/108/5
f 57/109/5 66/99/5 67/100/5
f 56/110/44 65/9/44 66/99/44
f 14/111/5 64/101/5 13/102/5
f 53/112/45 64/101/45 54/113/45
f 52/114/46 63/103/46 53/112/46
f 51/115/5 62/104/5 52/114/5
f 51/115/5 60/106/5 61/105/5
f 49/116/47 60/106/47 50/117/47
f 48/118/48 59/107/48 49/116/48
f 47/119/5 58/108/5 48/118/5
f 46/120/49 57/109/49 47/119/49
f 46/120/50 55/8/50 56/110/50
f 1/121/51 54/113/51 14/111/51
f 26/122/52 54/113/52 25/123/52
f 26/122/53 52/114/53 53/112/53
f 27/124/5 51/115/5 52/114/5
f 28/125/54 50/117/54 51/115/54
f 29/126/5 49/116/5 50/117/5
f 30/127/55 48/118/55 49/116/55
f 31/128/5 47/119/5 48/118/5
f 33/129/5 47/119/5 32/130/5
f 33/129/56 45/6/56 46/120/56
f 144/22/57 3/131/57 5/23/57
f 143/27/58 44/132/58 144/22/58
f 142/29/5 43/133/5 143/27/5
f 141/31/5 42/134/5 142/29/5
f 141/31/5 40/135/5 41/136/5
f 139/32/59 40/135/59 140/33/59
f 138/37/5 39/137/5 139/32/5
f 137/39/5 38/138/5 138/37/5
f 137/39/5 36/139/5 37/140/5
f 136/40/60 35/2/60 36/139/60
f 24/1/61 4/141/61 35/2/61
f 34/4/5 2/142/5 15/5/5
f 45/6/62 15/5/62 16/7/62
f 16/7/5 17/10/5 65/9/5
f 17/10/5 18/143/5 75/11/5
f 75/11/63 18/143/63 19/12/63
f 85/13/64 19/12/64 20/14/64
f 20/14/8 21/17/8 105/16/8
f 21/17/5 22/144/5 115/18/5
f 115/18/5 22/144/5 23/19/5
f 23/19/10 24/1/10 135/3/10
f 6/21/65 134/25/65 144/22/65
f 133/24/66 143/27/66 144/22/66
f 132/26/5 142/29/5 143/27/5
f 131/28/5 141/31/5 142/29/5
f 130/30/67 140/33/67 141/31/67
f 130/30/5 129/35/5 139/32/5
f 128/34/5 138/37/5 139/32/5
f 127/36/5 137/39/5 138/37/5
f 126/38/68 136/40/68 137/39/68
f 125/20/5 135/3/5 136/40/5
f 124/41/69 134/25/69 6/21/69
f 124/41/70 123/43/70 133/24/70
f 123/43/71 122/45/71 132/26/71
f 121/44/5 131/28/5 132/26/5
f 120/46/5 130/30/5 131/28/5
f 120/46/72 119/48/72 129/35/72
f 118/47/20 128/34/20 129/35/20
f 117/49/5 127/36/5 128/34/5
f 116/50/73 126/38/73 127/36/73
f 115/18/74 125/20/74 126/38/74
f 114/51/75 124/41/75 7/42/75
f 114/51/76 113/53/76 123/43/76
f 113/53/5 112/55/5 122/45/5
f 111/54/5 121/44/5 122/45/5
f 110/56/5 120/46/5 121/44/5
f 109/57/25 119/48/25 120/46/25
f 108/58/5 118/47/5 119/48/5
f 107/59/26 117/49/26 118/47/26
f 106/60/5 116/50/5 117/49/5
f 105/16/5 115/18/5 116/50/5
f 104/61/5 114/51/5 8/52/5
f 103/63/5 113/53/5 114/51/5
f 102/64/5 112/55/5 113/53/5
f 101/65/5 111/54/5 112/55/5
f 100/66/5 110/56/5 111/54/5
f 99/67/77 109/57/77 110/56/77
f 98/68/27 108/58/27 109/57/27
f 98/68/5 97/70/5 107/59/5
f 96/69/5 106/60/5 107/59/5
f 96/69/78 95/15/78 105/16/78
f 10/71/79 94/73/79 104/61/79
f 93/72/29 103/63/29 104/61/29
f 92/74/5 102/64/5 103/63/5
f 92/74/80 91/76/80 101/65/80
f 90/75/31 100/66/31 101/65/31
f 89/77/5 99/67/5 100/66/5
f 88/78/5 98/68/5 99/67/5
f 87/79/5 97/70/5 98/68/5
f 86/80/5 96/69/5 97/70/5
f 85/13/81 95/15/81 96/69/81
f 84/81/34 94/73/34 10/71/34
f 83/83/5 93/72/5 94/73/5
f 82/84/35 92/74/35 93/72/35
f 81/85/36 91/76/36 92/74/36
f 80/86/5 90/75/5 91/76/5
f 79/87/37 89/77/37 90/75/37
f 79/87/82 78/89/82 88/78/82
f 77/88/5 87/79/5 88/78/5
f 76/90/5 86/80/5 87/79/5
f 75/11/83 85/13/83 86/80/83
f 74/91/84 84/81/84 11/82/84
f 73/93/39 83/83/39 84/81/39
f 73/93/5 72/95/5 82/84/5
f 71/94/85 81/85/85 82/84/85
f 70/96/41 80/86/41 81/85/41
f 70/96/5 69/98/5 79/87/5
f 68/97/86 78/89/86 79/87/86
f 68/97/5 67/100/5 77/88/5
f 66/99/5 76/90/5 77/88/5
f 65/9/5 75/11/5 76/90/5
f 64/101/5 74/91/5 12/92/5
f 63/103/5 73/93/5 74/91/5
f 62/104/5 72/95/5 73/93/5
f 61/105/5 71/94/5 72/95/5
f 60/106/5 70/96/5 71/94/5
f 59/107/5 69/98/5 70/96/5
f 58/108/5 68/97/5 69/98/5
f 57/109/5 67/100/5 68/97/5
f 57/109/87 56/110/87 66/99/87
f 56/110/88 55/8/88 65/9/88
f 14/111/89 54/113/89 64/101/89
f 53/112/45 63/103/45 64/101/45
f 52/114/5 62/104/5 63/103/5
f 51/115/5 61/105/5 62/104/5
f 51/115/90 50/117/90 60/106/90
f 49/116/47 59/107/47 60/106/47
f 48/118/5 58/108/5 59/107/5
f 47/119/5 57/109/5 58/108/5
f 46/120/49 56/110/49 57/109/49
f 46/120/91 45/6/91 55/8/91
f 1/121/92 25/123/92 54/113/92
f 26/122/5 53/112/5 54/113/5
f 26/122/53 27/124/53 52/114/53
f 27/124/5 28/125/5 51/115/5
f 28/125/54 29/126/54 50/117/54
f 29/126/93 30/127/93 49/116/93
f 30/127/94 31/128/94 48/118/94
f 31/128/5 32/130/5 47/119/5
f 33/129/95 46/120/95 47/119/95
f 33/129/96 34/4/96 45/6/96
f 144/22/5 44/132/5 3/131/5
f 143/27/58 43/133/58 44/132/58
f 142/29/5 42/134/5 43/133/5
f 141/31/5 41/136/5 42/134/5
f 141/31/97 140/33/97 40/135/97
f 139/32/5 39/137/5 40/135/5
f 138/37/5 38/138/5 39/137/5
f 137/39/5 37/140/5 38/138/5
f 137/39/98 136/40/98 36/139/98
f 136/40/99 135/3/99 35/2/99
